<svg width="22" height="22" viewBox="0 0 22 22" fill="none" xmlns="http://www.w3.org/2000/svg">
<path d="M21 11C21 8.3163 19.9428 5.87952 18.2222 4.08337M21 11C21 13.6837 19.9428 16.1205 18.2222 17.9166M21 11H1M11 21C13.8391 21 16.4019 19.8168 18.2222 17.9166M11 21C8.16085 21 5.59805 19.8168 3.77778 17.9166M11 21V1M1 11C1 8.3163 2.05717 5.87952 3.77778 4.08337M1 11C1 13.6837 2.05717 16.1205 3.77778 17.9166M11 1C13.8391 1 16.4019 2.18318 18.2222 4.08337M11 1C8.16085 1 5.59805 2.18318 3.77778 4.08337M18.2222 4.08337C16.5016 5.87952 15.4444 8.3163 15.4444 11C15.4444 13.6837 16.5016 16.1205 18.2222 17.9166M3.77778 4.08337C5.49839 5.87952 6.55556 8.3163 6.55556 11C6.55556 13.6837 5.49839 16.1205 3.77778 17.9166" stroke="white" stroke-width="1.5" stroke-linecap="round"/>
</svg>
