<svg width="48" height="48" viewBox="0 0 48 48" fill="none" xmlns="http://www.w3.org/2000/svg">
<path fill-rule="evenodd" clip-rule="evenodd" d="M21.5 4C21.5 3.17157 20.8284 2.5 20 2.5C19.1716 2.5 18.5 3.17157 18.5 4V8C18.5 8.82843 19.1716 9.5 20 9.5C20.8284 9.5 21.5 8.82843 21.5 8V4ZM29.4999 10C29.4999 9.17157 28.8283 8.5 27.9999 8.5C27.1715 8.5 26.4999 9.17157 26.4999 10V14C26.4999 14.8284 27.1715 15.5 27.9999 15.5C28.8283 15.5 29.4999 14.8284 29.4999 14V10ZM14.429 13.4372C15.2228 13.2002 15.6742 12.3645 15.4372 11.5707C15.2002 10.777 14.3645 10.3256 13.5707 10.5626C11.6452 11.1375 9.95937 11.8956 8.7214 12.8351C7.50373 13.7591 6.49988 15.039 6.49988 16.6524C6.49988 24.3197 10.5335 31.0328 16.4999 34.1675V40.0217C16.4999 44.1051 20.8141 46.7274 24.4559 44.9188L28.4559 42.9323C30.3177 42.0077 31.4999 40.1136 31.4999 38.0352V34.1675C37.4663 31.0328 41.4999 24.3197 41.4999 16.6524C41.4999 15.039 40.496 13.7591 39.2784 12.8351C38.0404 11.8956 36.3546 11.1375 34.429 10.5626C33.6352 10.3256 32.7996 10.777 32.5626 11.5707C32.3256 12.3645 32.7769 13.2002 33.5707 13.4372C35.303 13.9544 36.6172 14.5816 37.4648 15.2248C38.3327 15.8834 38.4999 16.3837 38.4999 16.6524C38.4999 16.8881 38.3768 17.2954 37.7512 17.8464C37.1279 18.3953 36.14 18.958 34.79 19.4608C32.1015 20.4622 28.2869 21.112 23.9999 21.112C19.7129 21.112 15.8983 20.4622 13.2097 19.4608C11.8598 18.958 10.8718 18.3953 10.2486 17.8464C9.62293 17.2954 9.49988 16.8881 9.49988 16.6524C9.49988 16.3837 9.6671 15.8834 10.535 15.2248C11.3825 14.5816 12.6967 13.9544 14.429 13.4372ZM20 12.5C20.8284 12.5 21.5 13.1716 21.5 14V16C21.5 16.8284 20.8284 17.5 20 17.5C19.1716 17.5 18.5 16.8284 18.5 16V14C18.5 13.1716 19.1716 12.5 20 12.5Z" fill="white"/>
</svg>
