<svg width="36" height="36" viewBox="0 0 36 36" fill="none" xmlns="http://www.w3.org/2000/svg">
<path fill-rule="evenodd" clip-rule="evenodd" d="M16.0909 1.90735e-06H19.9091C22.0178 1.90735e-06 23.7273 1.61178 23.7273 3.6C23.7273 5.87524 26.1617 7.32177 28.16 6.23396L28.363 6.12348C30.1892 5.12936 32.5244 5.71932 33.5787 7.44117L35.4878 10.5589C36.5422 12.2807 35.9165 14.4824 34.0903 15.4766C32.091 16.5649 32.091 19.4351 34.0903 20.5234C35.9165 21.5176 36.5422 23.7193 35.4878 25.4411L33.5787 28.5588C32.5244 30.2807 30.1892 30.8706 28.363 29.8765L28.16 29.766C26.1617 28.6782 23.7273 30.1248 23.7273 32.4C23.7273 34.3882 22.0178 36 19.9091 36H16.0909C13.9822 36 12.2727 34.3882 12.2727 32.4C12.2727 30.1248 9.83833 28.6783 7.84 29.7661L7.63703 29.8765C5.81081 30.8707 3.47564 30.2807 2.42128 28.5589L0.512179 25.4412C-0.542187 23.7193 0.0835206 21.5176 1.90974 20.5235C3.90902 19.4352 3.90902 16.5648 1.90974 15.4765C0.0835236 14.4824 -0.542184 12.2807 0.512181 10.5588L2.42128 7.44114C3.47564 5.71929 5.81082 5.12934 7.63703 6.12345L7.84 6.23394C9.83833 7.32174 12.2727 5.87523 12.2727 3.6C12.2727 1.61178 13.9822 1.90735e-06 16.0909 1.90735e-06ZM18 24C21.3137 24 24 21.3137 24 18C24 14.6863 21.3137 12 18 12C14.6863 12 12 14.6863 12 18C12 21.3137 14.6863 24 18 24Z" fill="white"/>
</svg>
